<svg xmlns="http://www.w3.org/2000/svg" viewBox="0 0 520 680" font-family="Arial, Helvetica, 'PingFang SC', 'Microsoft YaHei', sans-serif">
  <defs>
    <marker id="arr" markerWidth="8" markerHeight="6" refX="8" refY="3" orient="auto">
      <polygon points="0 0, 8 3, 0 6" fill="#475569"/>
    </marker>
    <marker id="arr-loop" markerWidth="8" markerHeight="6" refX="8" refY="3" orient="auto">
      <polygon points="0 0, 8 3, 0 6" fill="#DB2777"/>
    </marker>
  </defs>

  <rect width="520" height="680" fill="#FFFFFF"/>

  <!-- Title -->
  <text x="260" y="28" fill="#0F172A" font-size="15" font-weight="700" text-anchor="middle">CAAMI Active Sensing Pipeline</text>

  <!-- Box 1: Initial State -->
  <rect x="110" y="50" width="300" height="46" rx="6" fill="#F8FAFC" stroke="#3B82F6" stroke-width="1.8"/>
  <text x="260" y="70" fill="#1E40AF" font-size="12" font-weight="600" text-anchor="middle">Prior Belief Map μ(x), σ²(x)</text>
  <text x="260" y="87" fill="#64748B" font-size="9" text-anchor="middle">Cheap dense prior + observed mask + budget remaining</text>

  <line x1="260" y1="96" x2="260" y2="118" stroke="#475569" stroke-width="1.5" marker-end="url(#arr)"/>

  <!-- Box 2: Multi-component utility score -->
  <rect x="60" y="120" width="400" height="60" rx="6" fill="#F8FAFC" stroke="#22C55E" stroke-width="1.8"/>
  <text x="260" y="142" fill="#166534" font-size="12" font-weight="600" text-anchor="middle">Multi-Component Utility Score</text>
  
  <rect x="78" y="150" width="110" height="22" rx="4" fill="#F0FDF4" stroke="#86EFAC" stroke-width="1"/>
  <text x="133" y="165" fill="#166534" font-size="9" text-anchor="middle">Miss-Risk (10%)</text>

  <rect x="198" y="150" width="110" height="22" rx="4" fill="#F0FDF4" stroke="#86EFAC" stroke-width="1"/>
  <text x="253" y="165" fill="#166534" font-size="9" text-anchor="middle">Grad Diversity (90%)</text>

  <rect x="318" y="150" width="124" height="22" rx="4" fill="#F0FDF4" stroke="#86EFAC" stroke-width="1"/>
  <text x="380" y="165" fill="#166534" font-size="9" text-anchor="middle">Tail Risk (optional)</text>

  <line x1="260" y1="180" x2="260" y2="202" stroke="#475569" stroke-width="1.5" marker-end="url(#arr)"/>

  <!-- Box 3: Cost normalization + Select -->
  <rect x="60" y="204" width="400" height="46" rx="6" fill="#F8FAFC" stroke="#A855F7" stroke-width="1.8"/>
  <text x="260" y="224" fill="#6B21A8" font-size="12" font-weight="600" text-anchor="middle">Cost Normalization &amp; Sensor Selection</text>
  <text x="260" y="241" fill="#64748B" font-size="9" text-anchor="middle">Score ÷ max(sensor_cost + route_cost, ε)  →  argmax over (sensor, location)  ×  3 sensors</text>

  <line x1="260" y1="250" x2="260" y2="272" stroke="#475569" stroke-width="1.5" marker-end="url(#arr)"/>

  <!-- Box 4: Acquire -->
  <rect x="110" y="274" width="300" height="46" rx="6" fill="#F8FAFC" stroke="#F59E0B" stroke-width="1.8"/>
  <text x="260" y="294" fill="#B45309" font-size="12" font-weight="600" text-anchor="middle">Acquire Observation</text>
  <text x="260" y="311" fill="#64748B" font-size="9" text-anchor="middle">Probe selected location with chosen sensor (handle noise / failure)</text>

  <line x1="260" y1="320" x2="260" y2="342" stroke="#475569" stroke-width="1.5" marker-end="url(#arr)"/>

  <!-- Box 5: Update -->
  <rect x="110" y="344" width="300" height="46" rx="6" fill="#F8FAFC" stroke="#F59E0B" stroke-width="1.8"/>
  <text x="260" y="364" fill="#B45309" font-size="12" font-weight="600" text-anchor="middle">Belief Assimilation (GP Update)</text>
  <text x="260" y="381" fill="#64748B" font-size="9" text-anchor="middle">Update μ(x), σ²(x) within sensor footprint using observation</text>

  <line x1="260" y1="390" x2="260" y2="412" stroke="#475569" stroke-width="1.5" marker-end="url(#arr)"/>

  <!-- Box 6: Decision -->
  <rect x="140" y="414" width="240" height="36" rx="6" fill="#F8FAFC" stroke="#64748B" stroke-width="1.5"/>
  <text x="260" y="437" fill="#334155" font-size="12" font-weight="600" text-anchor="middle">Budget Remaining?</text>

  <!-- Yes branch: loop back -->
  <polyline points="140,432 30,432 30,352 108,352" fill="none" stroke="#DB2777" stroke-width="1.5" stroke-dasharray="6,3" marker-end="url(#arr-loop)"/>
  <text x="35" y="335" fill="#DB2777" font-size="9" font-weight="600">Yes</text>

  <!-- No branch: down -->
  <line x1="260" y1="450" x2="260" y2="472" stroke="#475569" stroke-width="1.5" marker-end="url(#arr)"/>

  <!-- Box 7: Output -->
  <rect x="60" y="474" width="400" height="56" rx="6" fill="#DBEAFE" stroke="#3B82F6" stroke-width="2"/>
  <text x="260" y="498" fill="#1E40AF" font-size="13" font-weight="700" text-anchor="middle">Final Risk Map → Metrics</text>
  
  <rect x="78" y="506" width="98" height="18" rx="3" fill="#FFFFFF" stroke="#93C5FD" stroke-width="1"/>
  <text x="127" y="519" fill="#1E40AF" font-size="9" text-anchor="middle">FNR ↓</text>

  <rect x="186" y="506" width="98" height="18" rx="3" fill="#FFFFFF" stroke="#93C5FD" stroke-width="1"/>
  <text x="235" y="519" fill="#1E40AF" font-size="9" text-anchor="middle">ECE ↓</text>

  <rect x="294" y="506" width="98" height="18" rx="3" fill="#FFFFFF" stroke="#93C5FD" stroke-width="1"/>
  <text x="343" y="519" fill="#1E40AF" font-size="9" text-anchor="middle">Risk-AUC ↑</text>

  <rect x="402" y="506" width="40" height="18" rx="3" fill="#FEF2F2" stroke="#FECACA" stroke-width="1"/>
  <text x="422" y="519" fill="#DC2626" font-size="9" text-anchor="middle">...</text>

  <!-- Sensor labels on right -->
  <text x="470" y="165" fill="#A855F7" font-size="8" font-weight="600">Sensors</text>
  <rect x="470" y="172" width="42" height="16" rx="3" fill="#FAF5FF" stroke="#D8B4FE" stroke-width="0.8"/>
  <text x="491" y="183" fill="#6B21A8" font-size="7" text-anchor="middle">thermal</text>
  <rect x="470" y="192" width="42" height="16" rx="3" fill="#FAF5FF" stroke="#D8B4FE" stroke-width="0.8"/>
  <text x="491" y="203" fill="#6B21A8" font-size="7" text-anchor="middle">DFT</text>
  <rect x="470" y="212" width="42" height="16" rx="3" fill="#FAF5FF" stroke="#D8B4FE" stroke-width="0.8"/>
  <text x="491" y="223" fill="#6B21A8" font-size="7" text-anchor="middle">UT</text>

  <!-- Footer note -->
  <text x="260" y="555" fill="#94A3B8" font-size="9" text-anchor="middle">Core loop: score → select → probe → update → repeat until budget exhausted</text>
  <text x="260" y="570" fill="#94A3B8" font-size="9" text-anchor="middle">Adaptive CAAMI achieves mean FNR ≈ 0.001 (near oracle); terminal worst-region closure remains open frontier</text>
</svg>
